<?xml version="1.0" encoding="utf-8"?><!-- Uploaded to: SVG Repo, www.svgrepo.com, Generator: SVG Repo Mixer Tools -->
<svg width="800px" height="800px" viewBox="0 0 24 24" fill="none" xmlns="http://www.w3.org/2000/svg">
<path fill-rule="evenodd" clip-rule="evenodd" d="M13.4019 3.57179L18.5981 6.57179L17.4816 8.50555C17.5839 8.66569 17.6794 8.83064 17.7676 9H20V15H17.7676C17.6794 15.1694 17.5839 15.3343 17.4816 15.4944L18.5981 17.4282L13.4019 20.4282L12.2851 18.4938C12.1906 18.4979 12.0955 18.5 12 18.5C11.9045 18.5 11.8094 18.4979 11.7149 18.4938L10.5981 20.4282L5.40193 17.4282L6.51838 15.4944C6.41611 15.3343 6.32064 15.1694 6.23238 15H4V9H6.23238C6.32064 8.83064 6.41611 8.66569 6.51838 8.50555L5.40192 6.5718L10.5981 3.5718L11.7149 5.50615C11.8094 5.50206 11.9045 5.5 12 5.5C12.0955 5.5 12.1906 5.50206 12.2851 5.50615L13.4019 3.57179ZM13.951 5.62083L13.0993 7.09593L12.6075 7.03645C12.4086 7.01241 12.2059 7 12 7C11.7941 7 11.5914 7.01241 11.3925 7.03645L10.9007 7.09593L10.049 5.62083L7.45096 7.12083L8.30328 8.5971L8.00442 8.99357C7.7615 9.31583 7.55684 9.66813 7.39698 10.0437L7.20278 10.5H5.5V13.5H7.20278L7.39698 13.9563C7.55684 14.3319 7.7615 14.6842 8.00442 15.0064L8.30328 15.4029L7.45096 16.8792L10.049 18.3792L10.9007 16.9041L11.3925 16.9635C11.5914 16.9876 11.7941 17 12 17C12.2059 17 12.4086 16.9876 12.6075 16.9635L13.0993 16.9041L13.951 18.3792L16.549 16.8792L15.6967 15.4029L15.9956 15.0064C16.2385 14.6842 16.4432 14.3319 16.603 13.9563L16.7972 13.5H18.5V10.5H16.7972L16.603 10.0437C16.4432 9.66813 16.2385 9.31583 15.9956 8.99357L15.6967 8.5971L16.549 7.12083L13.951 5.62083Z" fill="#1F2328"/>
<path fill-rule="evenodd" clip-rule="evenodd" d="M12 10.5C11.1716 10.5 10.5 11.1716 10.5 12C10.5 12.8284 11.1716 13.5 12 13.5C12.8284 13.5 13.5 12.8284 13.5 12C13.5 11.1716 12.8284 10.5 12 10.5ZM9 12C9 10.3431 10.3431 9 12 9C13.6569 9 15 10.3431 15 12C15 13.6569 13.6569 15 12 15C10.3431 15 9 13.6569 9 12Z" fill="#1F2328"/>
</svg>